<svg viewBox="0 0 800 360" xmlns="http://www.w3.org/2000/svg" font-family="ui-monospace,monospace" font-size="11">
<rect width="800" height="360" fill="white"/>
<text x="400" y="26" text-anchor="middle" font-size="13" font-weight="bold" fill="#374151">Figure 3 — Bypass Rate by Attack Category and Defense Type</text>
<line x1="50" y1="280.0" x2="770" y2="280.0" stroke="#d1d5db" stroke-width="1"/>
<text x="46" y="284.0" text-anchor="end" fill="#374151">0%</text>
<line x1="50" y1="222.5" x2="770" y2="222.5" stroke="#d1d5db" stroke-width="1"/>
<text x="46" y="226.5" text-anchor="end" fill="#374151">25%</text>
<line x1="50" y1="165.0" x2="770" y2="165.0" stroke="#d1d5db" stroke-width="1"/>
<text x="46" y="169.0" text-anchor="end" fill="#374151">50%</text>
<line x1="50" y1="107.5" x2="770" y2="107.5" stroke="#d1d5db" stroke-width="1"/>
<text x="46" y="111.5" text-anchor="end" fill="#374151">75%</text>
<line x1="50" y1="50.0" x2="770" y2="50.0" stroke="#d1d5db" stroke-width="1"/>
<text x="46" y="54.0" text-anchor="end" fill="#374151">100%</text>
<rect x="64.4" y="280.0" width="26.8" height="0.0" fill="#22c55e" rx="2"/>
<rect x="93.2" y="280.0" width="26.8" height="0.0" fill="#3b82f6" rx="2"/>
<rect x="122.0" y="50.0" width="26.8" height="230.0" fill="#ef4444" rx="2"/>
<text x="135.4" y="47.0" text-anchor="middle" fill="#ef4444" font-size="9">100%</text>
<rect x="150.8" y="280.0" width="26.8" height="0.0" fill="#f97316" rx="2"/>
<text x="122.0" y="296" text-anchor="middle" fill="#374151">citation</text>
<text x="122.0" y="309" text-anchor="middle" fill="#374151">forgery</text>
<rect x="208.4" y="280.0" width="26.8" height="0.0" fill="#22c55e" rx="2"/>
<rect x="237.2" y="280.0" width="26.8" height="0.0" fill="#3b82f6" rx="2"/>
<rect x="266.0" y="50.0" width="26.8" height="230.0" fill="#ef4444" rx="2"/>
<text x="279.4" y="47.0" text-anchor="middle" fill="#ef4444" font-size="9">100%</text>
<rect x="294.8" y="280.0" width="26.8" height="0.0" fill="#f97316" rx="2"/>
<text x="266.0" y="296" text-anchor="middle" fill="#374151">cross</text>
<text x="266.0" y="309" text-anchor="middle" fill="#374151">tenant poisoning</text>
<rect x="352.4" y="280.0" width="26.8" height="0.0" fill="#22c55e" rx="2"/>
<rect x="381.2" y="280.0" width="26.8" height="0.0" fill="#3b82f6" rx="2"/>
<rect x="410.0" y="88.3" width="26.8" height="191.7" fill="#ef4444" rx="2"/>
<text x="423.4" y="85.3" text-anchor="middle" fill="#ef4444" font-size="9">83%</text>
<rect x="438.8" y="280.0" width="26.8" height="0.0" fill="#f97316" rx="2"/>
<text x="410.0" y="296" text-anchor="middle" fill="#374151">jailbreak</text>
<text x="410.0" y="309" text-anchor="middle" fill="#374151">via context</text>
<rect x="496.4" y="50.0" width="26.8" height="230.0" fill="#22c55e" rx="2"/>
<text x="509.8" y="47.0" text-anchor="middle" fill="#22c55e" font-size="9">100%</text>
<rect x="525.2" y="280.0" width="26.8" height="0.0" fill="#3b82f6" rx="2"/>
<rect x="554.0" y="50.0" width="26.8" height="230.0" fill="#ef4444" rx="2"/>
<text x="567.4" y="47.0" text-anchor="middle" fill="#ef4444" font-size="9">100%</text>
<rect x="582.8" y="50.0" width="26.8" height="230.0" fill="#f97316" rx="2"/>
<text x="596.2" y="47.0" text-anchor="middle" fill="#f97316" font-size="9">100%</text>
<text x="554.0" y="296" text-anchor="middle" fill="#374151">semantic</text>
<text x="554.0" y="309" text-anchor="middle" fill="#374151">backdoor</text>
<rect x="640.4" y="280.0" width="26.8" height="0.0" fill="#22c55e" rx="2"/>
<rect x="669.2" y="280.0" width="26.8" height="0.0" fill="#3b82f6" rx="2"/>
<rect x="698.0" y="50.0" width="26.8" height="230.0" fill="#ef4444" rx="2"/>
<text x="711.4" y="47.0" text-anchor="middle" fill="#ef4444" font-size="9">100%</text>
<rect x="726.8" y="280.0" width="26.8" height="0.0" fill="#f97316" rx="2"/>
<text x="698.0" y="296" text-anchor="middle" fill="#374151">temporal</text>
<text x="698.0" y="309" text-anchor="middle" fill="#374151">spoofing</text>
<line x1="50" y1="280" x2="770" y2="280" stroke="#374151" stroke-width="1.5"/>
<rect x="50" y="337" width="12" height="10" fill="#22c55e" rx="2"/>
<text x="65" y="346" fill="#374151">Composite</text>
<rect x="143" y="337" width="12" height="10" fill="#3b82f6" rx="2"/>
<text x="158" y="346" fill="#374151">full_proposed</text>
<rect x="264" y="337" width="12" height="10" fill="#ef4444" rx="2"/>
<text x="279" y="346" fill="#374151">Regex</text>
<rect x="329" y="337" width="12" height="10" fill="#f97316" rx="2"/>
<text x="344" y="346" fill="#374151">Semantic</text>
</svg>