<svg viewBox="0 0 880 560" xmlns="http://www.w3.org/2000/svg">
  <defs>
    <linearGradient id="lg" x1="0" y1="0" x2="1" y2="0">
      <stop offset="0%"   stop-color="#27ae60"/>
      <stop offset="50%"  stop-color="#f39c12"/>
      <stop offset="100%" stop-color="#e74c3c"/>
    </linearGradient>
  </defs>

  <rect width="880" height="560" fill="#f8f9fa" rx="4"/>

  <!-- Title -->
  <text x="440" y="22" text-anchor="middle" font-size="12" font-weight="bold" fill="#1a1a2e" font-family="sans-serif">Attack success rate — 16 attacks × 6 defense configurations (worst-case model)</text>
  <text x="440" y="37" text-anchor="middle" font-size="9" fill="#666" font-family="sans-serif">representative data · run hemlock score against your pipeline for actual numbers · ★ = new in v1.3</text>

  <!-- Column headers — prompt hardening -->
  <text x="254" y="52" text-anchor="middle" font-size="9.5" font-weight="bold" fill="#444" font-family="monospace">baseline</text>
  <text x="362" y="52" text-anchor="middle" font-size="9.5" font-weight="bold" fill="#444" font-family="monospace">l1</text>
  <text x="470" y="52" text-anchor="middle" font-size="9.5" font-weight="bold" fill="#444" font-family="monospace">l2</text>
  <text x="578" y="52" text-anchor="middle" font-size="9.5" font-weight="bold" fill="#444" font-family="monospace">l3</text>
  <text x="686" y="52" text-anchor="middle" font-size="9.5" font-weight="bold" fill="#444" font-family="monospace">l4</text>
  <!-- Classifier column header -->
  <rect x="744" y="42" width="108" height="18" fill="#e8ecff" rx="2"/>
  <text x="798" y="55" text-anchor="middle" font-size="9.5" font-weight="bold" fill="#3a56d4" font-family="monospace">l4+cls</text>

  <!-- Vertical separator between l4 and l4+cls -->
  <line x1="741" y1="42" x2="741" y2="477" stroke="#c8cfe0" stroke-width="1.5" stroke-dasharray="4,3"/>

  <!-- ROW 0: Citation Forgery [93, 88, 75, 58, 40 | 12] -->
  <text x="194" y="74" text-anchor="end" font-size="8.5" fill="#222" font-family="monospace">Citation Forgery</text>
  <rect x="200" y="58" width="108" height="26" fill="#e95736" stroke="#f8f9fa" stroke-width="1.5"/>
  <text x="254" y="74" text-anchor="middle" font-size="8" fill="#fff" font-family="monospace">93%</text>
  <rect x="308" y="58" width="108" height="26" fill="#ea5f32" stroke="#f8f9fa" stroke-width="1.5"/>
  <text x="362" y="74" text-anchor="middle" font-size="8" fill="#fff" font-family="monospace">88%</text>
  <rect x="416" y="58" width="108" height="26" fill="#ed7427" stroke="#f8f9fa" stroke-width="1.5"/>
  <text x="470" y="74" text-anchor="middle" font-size="8" fill="#fff" font-family="monospace">75%</text>
  <rect x="524" y="58" width="108" height="26" fill="#f18f19" stroke="#f8f9fa" stroke-width="1.5"/>
  <text x="578" y="74" text-anchor="middle" font-size="8" fill="#222" font-family="monospace">58%</text>
  <rect x="632" y="58" width="108" height="26" fill="#caa022" stroke="#f8f9fa" stroke-width="1.5"/>
  <text x="686" y="74" text-anchor="middle" font-size="8" fill="#222" font-family="monospace">40%</text>
  <rect x="744" y="58" width="108" height="26" fill="#58aa4d" stroke="#aabdff" stroke-width="1.5"/>
  <text x="798" y="74" text-anchor="middle" font-size="8" fill="#222" font-family="monospace">12%</text>

  <!-- ROW 1: CoT Hijack [88, 82, 68, 52, 35 | 8] -->
  <text x="194" y="100" text-anchor="end" font-size="8.5" fill="#222" font-family="monospace">CoT Hijack</text>
  <rect x="200" y="84" width="108" height="26" fill="#ea5f32" stroke="#f8f9fa" stroke-width="1.5"/>
  <text x="254" y="100" text-anchor="middle" font-size="8" fill="#fff" font-family="monospace">88%</text>
  <rect x="308" y="84" width="108" height="26" fill="#eb692d" stroke="#f8f9fa" stroke-width="1.5"/>
  <text x="362" y="100" text-anchor="middle" font-size="8" fill="#fff" font-family="monospace">82%</text>
  <rect x="416" y="84" width="108" height="26" fill="#ef7f21" stroke="#f8f9fa" stroke-width="1.5"/>
  <text x="470" y="100" text-anchor="middle" font-size="8" fill="#fff" font-family="monospace">68%</text>
  <rect x="524" y="84" width="108" height="26" fill="#f39914" stroke="#f8f9fa" stroke-width="1.5"/>
  <text x="578" y="100" text-anchor="middle" font-size="8" fill="#222" font-family="monospace">52%</text>
  <rect x="632" y="84" width="108" height="26" fill="#b6a129" stroke="#f8f9fa" stroke-width="1.5"/>
  <text x="686" y="100" text-anchor="middle" font-size="8" fill="#222" font-family="monospace">35%</text>
  <rect x="744" y="84" width="108" height="26" fill="#48ab54" stroke="#aabdff" stroke-width="1.5"/>
  <text x="798" y="100" text-anchor="middle" font-size="8" fill="#222" font-family="monospace">8%</text>

  <!-- ROW 2: Temporal Spoofing [82, 75, 62, 45, 28 | 5] -->
  <text x="194" y="126" text-anchor="end" font-size="8.5" fill="#222" font-family="monospace">Temporal Spoofing</text>
  <rect x="200" y="110" width="108" height="26" fill="#eb692d" stroke="#f8f9fa" stroke-width="1.5"/>
  <text x="254" y="126" text-anchor="middle" font-size="8" fill="#fff" font-family="monospace">82%</text>
  <rect x="308" y="110" width="108" height="26" fill="#ed7427" stroke="#f8f9fa" stroke-width="1.5"/>
  <text x="362" y="126" text-anchor="middle" font-size="8" fill="#fff" font-family="monospace">75%</text>
  <rect x="416" y="110" width="108" height="26" fill="#f0891c" stroke="#f8f9fa" stroke-width="1.5"/>
  <text x="470" y="126" text-anchor="middle" font-size="8" fill="#222" font-family="monospace">62%</text>
  <rect x="524" y="110" width="108" height="26" fill="#df9e1a" stroke="#f8f9fa" stroke-width="1.5"/>
  <text x="578" y="126" text-anchor="middle" font-size="8" fill="#222" font-family="monospace">45%</text>
  <rect x="632" y="110" width="108" height="26" fill="#99a434" stroke="#f8f9fa" stroke-width="1.5"/>
  <text x="686" y="126" text-anchor="middle" font-size="8" fill="#222" font-family="monospace">28%</text>
  <rect x="744" y="110" width="108" height="26" fill="#3bac58" stroke="#aabdff" stroke-width="1.5"/>
  <text x="798" y="126" text-anchor="middle" font-size="8" fill="#222" font-family="monospace">5%</text>

  <!-- ROW 3: Struct. Output Poison. ★ [80, 72, 58, 42, 25 | 15] — NEW, left border marker -->
  <rect x="196" y="136" width="4" height="26" fill="#3a56d4"/>
  <text x="194" y="152" text-anchor="end" font-size="8.5" font-weight="bold" fill="#1a1a2e" font-family="monospace">Struct. Output Poison. ★</text>
  <rect x="200" y="136" width="108" height="26" fill="#ec6c2b" stroke="#f8f9fa" stroke-width="1.5"/>
  <text x="254" y="152" text-anchor="middle" font-size="8" fill="#fff" font-family="monospace">80%</text>
  <rect x="308" y="136" width="108" height="26" fill="#ee7924" stroke="#f8f9fa" stroke-width="1.5"/>
  <text x="362" y="152" text-anchor="middle" font-size="8" fill="#fff" font-family="monospace">72%</text>
  <rect x="416" y="136" width="108" height="26" fill="#f18f19" stroke="#f8f9fa" stroke-width="1.5"/>
  <text x="470" y="152" text-anchor="middle" font-size="8" fill="#222" font-family="monospace">58%</text>
  <rect x="524" y="136" width="108" height="26" fill="#d29f1f" stroke="#f8f9fa" stroke-width="1.5"/>
  <text x="578" y="152" text-anchor="middle" font-size="8" fill="#222" font-family="monospace">42%</text>
  <rect x="632" y="136" width="108" height="26" fill="#8da539" stroke="#f8f9fa" stroke-width="1.5"/>
  <text x="686" y="152" text-anchor="middle" font-size="8" fill="#222" font-family="monospace">25%</text>
  <rect x="744" y="136" width="108" height="26" fill="#64a949" stroke="#aabdff" stroke-width="1.5"/>
  <text x="798" y="152" text-anchor="middle" font-size="8" fill="#222" font-family="monospace">15%</text>

  <!-- ROW 4: Context Flooding [78, 70, 55, 40, 22 | 6] -->
  <text x="194" y="178" text-anchor="end" font-size="8.5" fill="#222" font-family="monospace">Context Flooding</text>
  <rect x="200" y="162" width="108" height="26" fill="#ec6f2a" stroke="#f8f9fa" stroke-width="1.5"/>
  <text x="254" y="178" text-anchor="middle" font-size="8" fill="#fff" font-family="monospace">78%</text>
  <rect x="308" y="162" width="108" height="26" fill="#ee7c23" stroke="#f8f9fa" stroke-width="1.5"/>
  <text x="362" y="178" text-anchor="middle" font-size="8" fill="#fff" font-family="monospace">70%</text>
  <rect x="416" y="162" width="108" height="26" fill="#f29416" stroke="#f8f9fa" stroke-width="1.5"/>
  <text x="470" y="178" text-anchor="middle" font-size="8" fill="#222" font-family="monospace">55%</text>
  <rect x="524" y="162" width="108" height="26" fill="#caa022" stroke="#f8f9fa" stroke-width="1.5"/>
  <text x="578" y="178" text-anchor="middle" font-size="8" fill="#222" font-family="monospace">40%</text>
  <rect x="632" y="162" width="108" height="26" fill="#81a63e" stroke="#f8f9fa" stroke-width="1.5"/>
  <text x="686" y="178" text-anchor="middle" font-size="8" fill="#222" font-family="monospace">22%</text>
  <rect x="744" y="162" width="108" height="26" fill="#40ac57" stroke="#aabdff" stroke-width="1.5"/>
  <text x="798" y="178" text-anchor="middle" font-size="8" fill="#222" font-family="monospace">6%</text>

  <!-- ROW 5: Authority Spoofing [75, 67, 52, 38, 20 | 7] -->
  <text x="194" y="204" text-anchor="end" font-size="8.5" fill="#222" font-family="monospace">Authority Spoofing</text>
  <rect x="200" y="188" width="108" height="26" fill="#ed7427" stroke="#f8f9fa" stroke-width="1.5"/>
  <text x="254" y="204" text-anchor="middle" font-size="8" fill="#fff" font-family="monospace">75%</text>
  <rect x="308" y="188" width="108" height="26" fill="#ef8120" stroke="#f8f9fa" stroke-width="1.5"/>
  <text x="362" y="204" text-anchor="middle" font-size="8" fill="#222" font-family="monospace">67%</text>
  <rect x="416" y="188" width="108" height="26" fill="#f39914" stroke="#f8f9fa" stroke-width="1.5"/>
  <text x="470" y="204" text-anchor="middle" font-size="8" fill="#222" font-family="monospace">52%</text>
  <rect x="524" y="188" width="108" height="26" fill="#c2a025" stroke="#f8f9fa" stroke-width="1.5"/>
  <text x="578" y="204" text-anchor="middle" font-size="8" fill="#222" font-family="monospace">38%</text>
  <rect x="632" y="188" width="108" height="26" fill="#79a741" stroke="#f8f9fa" stroke-width="1.5"/>
  <text x="686" y="204" text-anchor="middle" font-size="8" fill="#222" font-family="monospace">20%</text>
  <rect x="744" y="188" width="108" height="26" fill="#44ac55" stroke="#aabdff" stroke-width="1.5"/>
  <text x="798" y="204" text-anchor="middle" font-size="8" fill="#222" font-family="monospace">7%</text>

  <!-- ROW 6: Cross-Tenant Poison. [72, 63, 48, 32, 18 | 4] -->
  <text x="194" y="230" text-anchor="end" font-size="8.5" fill="#222" font-family="monospace">Cross-Tenant Poison.</text>
  <rect x="200" y="214" width="108" height="26" fill="#ee7924" stroke="#f8f9fa" stroke-width="1.5"/>
  <text x="254" y="230" text-anchor="middle" font-size="8" fill="#fff" font-family="monospace">72%</text>
  <rect x="308" y="214" width="108" height="26" fill="#f0871d" stroke="#f8f9fa" stroke-width="1.5"/>
  <text x="362" y="230" text-anchor="middle" font-size="8" fill="#222" font-family="monospace">63%</text>
  <rect x="416" y="214" width="108" height="26" fill="#eb9d15" stroke="#f8f9fa" stroke-width="1.5"/>
  <text x="470" y="230" text-anchor="middle" font-size="8" fill="#222" font-family="monospace">48%</text>
  <rect x="524" y="214" width="108" height="26" fill="#aaa32e" stroke="#f8f9fa" stroke-width="1.5"/>
  <text x="578" y="230" text-anchor="middle" font-size="8" fill="#222" font-family="monospace">32%</text>
  <rect x="632" y="214" width="108" height="26" fill="#70a844" stroke="#f8f9fa" stroke-width="1.5"/>
  <text x="686" y="230" text-anchor="middle" font-size="8" fill="#222" font-family="monospace">18%</text>
  <rect x="744" y="214" width="108" height="26" fill="#37ad5a" stroke="#aabdff" stroke-width="1.5"/>
  <text x="798" y="230" text-anchor="middle" font-size="8" fill="#222" font-family="monospace">4%</text>

  <!-- ROW 7: Multi-Hop Poisoning [70, 60, 45, 30, 15 | 4] -->
  <text x="194" y="256" text-anchor="end" font-size="8.5" fill="#222" font-family="monospace">Multi-Hop Poisoning</text>
  <rect x="200" y="240" width="108" height="26" fill="#ee7c23" stroke="#f8f9fa" stroke-width="1.5"/>
  <text x="254" y="256" text-anchor="middle" font-size="8" fill="#fff" font-family="monospace">70%</text>
  <rect x="308" y="240" width="108" height="26" fill="#f18c1a" stroke="#f8f9fa" stroke-width="1.5"/>
  <text x="362" y="256" text-anchor="middle" font-size="8" fill="#222" font-family="monospace">60%</text>
  <rect x="416" y="240" width="108" height="26" fill="#df9e1a" stroke="#f8f9fa" stroke-width="1.5"/>
  <text x="470" y="256" text-anchor="middle" font-size="8" fill="#222" font-family="monospace">45%</text>
  <rect x="524" y="240" width="108" height="26" fill="#a1a331" stroke="#f8f9fa" stroke-width="1.5"/>
  <text x="578" y="256" text-anchor="middle" font-size="8" fill="#222" font-family="monospace">30%</text>
  <rect x="632" y="240" width="108" height="26" fill="#64a949" stroke="#f8f9fa" stroke-width="1.5"/>
  <text x="686" y="256" text-anchor="middle" font-size="8" fill="#222" font-family="monospace">15%</text>
  <rect x="744" y="240" width="108" height="26" fill="#37ad5a" stroke="#aabdff" stroke-width="1.5"/>
  <text x="798" y="256" text-anchor="middle" font-size="8" fill="#222" font-family="monospace">4%</text>

  <!-- ROW 8: Semantic Backdoor [68, 58, 42, 28, 12 | 3] -->
  <text x="194" y="282" text-anchor="end" font-size="8.5" fill="#222" font-family="monospace">Semantic Backdoor</text>
  <rect x="200" y="266" width="108" height="26" fill="#ef7f21" stroke="#f8f9fa" stroke-width="1.5"/>
  <text x="254" y="282" text-anchor="middle" font-size="8" fill="#222" font-family="monospace">68%</text>
  <rect x="308" y="266" width="108" height="26" fill="#f18f19" stroke="#f8f9fa" stroke-width="1.5"/>
  <text x="362" y="282" text-anchor="middle" font-size="8" fill="#222" font-family="monospace">58%</text>
  <rect x="416" y="266" width="108" height="26" fill="#d29f1f" stroke="#f8f9fa" stroke-width="1.5"/>
  <text x="470" y="282" text-anchor="middle" font-size="8" fill="#222" font-family="monospace">42%</text>
  <rect x="524" y="266" width="108" height="26" fill="#99a434" stroke="#f8f9fa" stroke-width="1.5"/>
  <text x="578" y="282" text-anchor="middle" font-size="8" fill="#222" font-family="monospace">28%</text>
  <rect x="632" y="266" width="108" height="26" fill="#58aa4d" stroke="#f8f9fa" stroke-width="1.5"/>
  <text x="686" y="282" text-anchor="middle" font-size="8" fill="#222" font-family="monospace">12%</text>
  <rect x="744" y="266" width="108" height="26" fill="#33ad5b" stroke="#aabdff" stroke-width="1.5"/>
  <text x="798" y="282" text-anchor="middle" font-size="8" fill="#222" font-family="monospace">3%</text>

  <!-- ROW 9: Jailbreak via Context [65, 55, 40, 25, 10 | 5] -->
  <text x="194" y="308" text-anchor="end" font-size="8.5" fill="#222" font-family="monospace">Jailbreak via Context</text>
  <rect x="200" y="292" width="108" height="26" fill="#ef841f" stroke="#f8f9fa" stroke-width="1.5"/>
  <text x="254" y="308" text-anchor="middle" font-size="8" fill="#222" font-family="monospace">65%</text>
  <rect x="308" y="292" width="108" height="26" fill="#f29416" stroke="#f8f9fa" stroke-width="1.5"/>
  <text x="362" y="308" text-anchor="middle" font-size="8" fill="#222" font-family="monospace">55%</text>
  <rect x="416" y="292" width="108" height="26" fill="#caa022" stroke="#f8f9fa" stroke-width="1.5"/>
  <text x="470" y="308" text-anchor="middle" font-size="8" fill="#222" font-family="monospace">40%</text>
  <rect x="524" y="292" width="108" height="26" fill="#8da539" stroke="#f8f9fa" stroke-width="1.5"/>
  <text x="578" y="308" text-anchor="middle" font-size="8" fill="#222" font-family="monospace">25%</text>
  <rect x="632" y="292" width="108" height="26" fill="#50aa50" stroke="#f8f9fa" stroke-width="1.5"/>
  <text x="686" y="308" text-anchor="middle" font-size="8" fill="#222" font-family="monospace">10%</text>
  <rect x="744" y="292" width="108" height="26" fill="#3bac58" stroke="#aabdff" stroke-width="1.5"/>
  <text x="798" y="308" text-anchor="middle" font-size="8" fill="#222" font-family="monospace">5%</text>

  <!-- ROW 10: Invisible Markup [62, 52, 38, 22, 8 | 3] -->
  <text x="194" y="334" text-anchor="end" font-size="8.5" fill="#222" font-family="monospace">Invisible Markup</text>
  <rect x="200" y="318" width="108" height="26" fill="#f0891c" stroke="#f8f9fa" stroke-width="1.5"/>
  <text x="254" y="334" text-anchor="middle" font-size="8" fill="#222" font-family="monospace">62%</text>
  <rect x="308" y="318" width="108" height="26" fill="#f39914" stroke="#f8f9fa" stroke-width="1.5"/>
  <text x="362" y="334" text-anchor="middle" font-size="8" fill="#222" font-family="monospace">52%</text>
  <rect x="416" y="318" width="108" height="26" fill="#c2a025" stroke="#f8f9fa" stroke-width="1.5"/>
  <text x="470" y="334" text-anchor="middle" font-size="8" fill="#222" font-family="monospace">38%</text>
  <rect x="524" y="318" width="108" height="26" fill="#81a63e" stroke="#f8f9fa" stroke-width="1.5"/>
  <text x="578" y="334" text-anchor="middle" font-size="8" fill="#222" font-family="monospace">22%</text>
  <rect x="632" y="318" width="108" height="26" fill="#48ab54" stroke="#f8f9fa" stroke-width="1.5"/>
  <text x="686" y="334" text-anchor="middle" font-size="8" fill="#222" font-family="monospace">8%</text>
  <rect x="744" y="318" width="108" height="26" fill="#33ad5b" stroke="#aabdff" stroke-width="1.5"/>
  <text x="798" y="334" text-anchor="middle" font-size="8" fill="#222" font-family="monospace">3%</text>

  <!-- ROW 11: Indirect Injection [60, 48, 35, 20, 7 | 2] -->
  <text x="194" y="360" text-anchor="end" font-size="8.5" fill="#222" font-family="monospace">Indirect Injection</text>
  <rect x="200" y="344" width="108" height="26" fill="#f18c1a" stroke="#f8f9fa" stroke-width="1.5"/>
  <text x="254" y="360" text-anchor="middle" font-size="8" fill="#222" font-family="monospace">60%</text>
  <rect x="308" y="344" width="108" height="26" fill="#eb9d15" stroke="#f8f9fa" stroke-width="1.5"/>
  <text x="362" y="360" text-anchor="middle" font-size="8" fill="#222" font-family="monospace">48%</text>
  <rect x="416" y="344" width="108" height="26" fill="#b6a129" stroke="#f8f9fa" stroke-width="1.5"/>
  <text x="470" y="360" text-anchor="middle" font-size="8" fill="#222" font-family="monospace">35%</text>
  <rect x="524" y="344" width="108" height="26" fill="#79a741" stroke="#f8f9fa" stroke-width="1.5"/>
  <text x="578" y="360" text-anchor="middle" font-size="8" fill="#222" font-family="monospace">20%</text>
  <rect x="632" y="344" width="108" height="26" fill="#44ac55" stroke="#f8f9fa" stroke-width="1.5"/>
  <text x="686" y="360" text-anchor="middle" font-size="8" fill="#222" font-family="monospace">7%</text>
  <rect x="744" y="344" width="108" height="26" fill="#2fad5d" stroke="#aabdff" stroke-width="1.5"/>
  <text x="798" y="360" text-anchor="middle" font-size="8" fill="#222" font-family="monospace">2%</text>

  <!-- ROW 12: Poisoning [58, 45, 32, 18, 6 | 2] -->
  <text x="194" y="386" text-anchor="end" font-size="8.5" fill="#222" font-family="monospace">Poisoning</text>
  <rect x="200" y="370" width="108" height="26" fill="#f18f19" stroke="#f8f9fa" stroke-width="1.5"/>
  <text x="254" y="386" text-anchor="middle" font-size="8" fill="#222" font-family="monospace">58%</text>
  <rect x="308" y="370" width="108" height="26" fill="#df9e1a" stroke="#f8f9fa" stroke-width="1.5"/>
  <text x="362" y="386" text-anchor="middle" font-size="8" fill="#222" font-family="monospace">45%</text>
  <rect x="416" y="370" width="108" height="26" fill="#aaa32e" stroke="#f8f9fa" stroke-width="1.5"/>
  <text x="470" y="386" text-anchor="middle" font-size="8" fill="#222" font-family="monospace">32%</text>
  <rect x="524" y="370" width="108" height="26" fill="#70a844" stroke="#f8f9fa" stroke-width="1.5"/>
  <text x="578" y="386" text-anchor="middle" font-size="8" fill="#222" font-family="monospace">18%</text>
  <rect x="632" y="370" width="108" height="26" fill="#40ac57" stroke="#f8f9fa" stroke-width="1.5"/>
  <text x="686" y="386" text-anchor="middle" font-size="8" fill="#222" font-family="monospace">6%</text>
  <rect x="744" y="370" width="108" height="26" fill="#2fad5d" stroke="#aabdff" stroke-width="1.5"/>
  <text x="798" y="386" text-anchor="middle" font-size="8" fill="#222" font-family="monospace">2%</text>

  <!-- ROW 13: Exfiltration [55, 42, 28, 15, 5 | 3] -->
  <text x="194" y="412" text-anchor="end" font-size="8.5" fill="#222" font-family="monospace">Exfiltration</text>
  <rect x="200" y="396" width="108" height="26" fill="#f29416" stroke="#f8f9fa" stroke-width="1.5"/>
  <text x="254" y="412" text-anchor="middle" font-size="8" fill="#222" font-family="monospace">55%</text>
  <rect x="308" y="396" width="108" height="26" fill="#d29f1f" stroke="#f8f9fa" stroke-width="1.5"/>
  <text x="362" y="412" text-anchor="middle" font-size="8" fill="#222" font-family="monospace">42%</text>
  <rect x="416" y="396" width="108" height="26" fill="#99a434" stroke="#f8f9fa" stroke-width="1.5"/>
  <text x="470" y="412" text-anchor="middle" font-size="8" fill="#222" font-family="monospace">28%</text>
  <rect x="524" y="396" width="108" height="26" fill="#64a949" stroke="#f8f9fa" stroke-width="1.5"/>
  <text x="578" y="412" text-anchor="middle" font-size="8" fill="#222" font-family="monospace">15%</text>
  <rect x="632" y="396" width="108" height="26" fill="#3bac58" stroke="#f8f9fa" stroke-width="1.5"/>
  <text x="686" y="412" text-anchor="middle" font-size="8" fill="#222" font-family="monospace">5%</text>
  <rect x="744" y="396" width="108" height="26" fill="#33ad5b" stroke="#aabdff" stroke-width="1.5"/>
  <text x="798" y="412" text-anchor="middle" font-size="8" fill="#222" font-family="monospace">3%</text>

  <!-- ROW 14: Context Override [50, 38, 25, 12, 4 | 1] -->
  <text x="194" y="438" text-anchor="end" font-size="8.5" fill="#222" font-family="monospace">Context Override</text>
  <rect x="200" y="422" width="108" height="26" fill="#f39c12" stroke="#f8f9fa" stroke-width="1.5"/>
  <text x="254" y="438" text-anchor="middle" font-size="8" fill="#222" font-family="monospace">50%</text>
  <rect x="308" y="422" width="108" height="26" fill="#c2a025" stroke="#f8f9fa" stroke-width="1.5"/>
  <text x="362" y="438" text-anchor="middle" font-size="8" fill="#222" font-family="monospace">38%</text>
  <rect x="416" y="422" width="108" height="26" fill="#8da539" stroke="#f8f9fa" stroke-width="1.5"/>
  <text x="470" y="438" text-anchor="middle" font-size="8" fill="#222" font-family="monospace">25%</text>
  <rect x="524" y="422" width="108" height="26" fill="#58aa4d" stroke="#f8f9fa" stroke-width="1.5"/>
  <text x="578" y="438" text-anchor="middle" font-size="8" fill="#222" font-family="monospace">12%</text>
  <rect x="632" y="422" width="108" height="26" fill="#37ad5a" stroke="#f8f9fa" stroke-width="1.5"/>
  <text x="686" y="438" text-anchor="middle" font-size="8" fill="#222" font-family="monospace">4%</text>
  <rect x="744" y="422" width="108" height="26" fill="#2bae5e" stroke="#aabdff" stroke-width="1.5"/>
  <text x="798" y="438" text-anchor="middle" font-size="8" fill="#222" font-family="monospace">1%</text>

  <!-- ROW 15: Direct Injection [45, 32, 20, 10, 3 | 1] -->
  <text x="194" y="464" text-anchor="end" font-size="8.5" fill="#222" font-family="monospace">Direct Injection</text>
  <rect x="200" y="448" width="108" height="26" fill="#df9e1a" stroke="#f8f9fa" stroke-width="1.5"/>
  <text x="254" y="464" text-anchor="middle" font-size="8" fill="#222" font-family="monospace">45%</text>
  <rect x="308" y="448" width="108" height="26" fill="#aaa32e" stroke="#f8f9fa" stroke-width="1.5"/>
  <text x="362" y="464" text-anchor="middle" font-size="8" fill="#222" font-family="monospace">32%</text>
  <rect x="416" y="448" width="108" height="26" fill="#79a741" stroke="#f8f9fa" stroke-width="1.5"/>
  <text x="470" y="464" text-anchor="middle" font-size="8" fill="#222" font-family="monospace">20%</text>
  <rect x="524" y="448" width="108" height="26" fill="#50aa50" stroke="#f8f9fa" stroke-width="1.5"/>
  <text x="578" y="464" text-anchor="middle" font-size="8" fill="#222" font-family="monospace">10%</text>
  <rect x="632" y="448" width="108" height="26" fill="#33ad5b" stroke="#f8f9fa" stroke-width="1.5"/>
  <text x="686" y="464" text-anchor="middle" font-size="8" fill="#222" font-family="monospace">3%</text>
  <rect x="744" y="448" width="108" height="26" fill="#2bae5e" stroke="#aabdff" stroke-width="1.5"/>
  <text x="798" y="464" text-anchor="middle" font-size="8" fill="#222" font-family="monospace">1%</text>

  <!-- Legend -->
  <text x="350" y="496" text-anchor="middle" font-size="7.5" fill="#777" font-family="sans-serif">0% blocked</text>
  <rect x="380" y="484" width="180" height="12" fill="url(#lg)" rx="2"/>
  <text x="580" y="496" text-anchor="middle" font-size="7.5" fill="#777" font-family="sans-serif">100% succeeded</text>
  <rect x="640" y="484" width="12" height="12" fill="#48ab54" stroke="#aabdff" stroke-width="1.5" rx="1"/>
  <text x="658" y="495" font-size="7.5" fill="#3a56d4" font-family="sans-serif">l4+cls = l4 prompt + LLMChunkClassifier</text>

  <!-- Footer -->
  <text x="440" y="519" text-anchor="middle" font-size="7" fill="#999" font-family="sans-serif">baseline–l4 = prompt hardening only · l4+cls adds LLMChunkClassifier at retrieval layer · ★ = structured_output_poisoning (v1.3)</text>
  <text x="440" y="534" text-anchor="middle" font-size="7" fill="#999" font-family="sans-serif">★ stays highest in l4+cls (15%) — classifier catches injection patterns but "mandatory schema update" docs mimic legitimate content</text>
  <text x="440" y="549" text-anchor="middle" font-size="7" fill="#999" font-family="sans-serif">SVGs render as static images in GitHub markdown — dark mode does not affect this chart · open labs/04_scorer_analysis.ipynb for interactive version</text>
</svg>
